<svg xmlns="http://www.w3.org/2000/svg" viewBox="0 0 1830.26 94.76"><title>Asset 4</title><g id="Layer_2" data-name="Layer 2"><g id="Layer_2_copy" data-name="Layer 2 copy"><path d="M35.89,1.56H6.25a6.25,6.25,0,0,0,0,12.5h8.6V45.53a6.25,6.25,0,0,0,12.5,0V14.06h8.54a6.25,6.25,0,0,0,0-12.5Z"/><path d="M88.2,1.45A6.25,6.25,0,0,0,82,7.7V19.92H65.24V7.7a6.25,6.25,0,1,0-12.5,0V45.42a6.25,6.25,0,0,0,12.5,0v-13H82v13a6.25,6.25,0,1,0,12.49,0V7.7A6.25,6.25,0,0,0,88.2,1.45Z"/><path d="M137.59,39.23h-20V32.81H134.4a6.25,6.25,0,0,0,0-12.5H117.55V14.06H137a6.25,6.25,0,0,0,0-12.5H111.3a6.25,6.25,0,0,0-6.25,6.25V45.48a6.26,6.26,0,0,0,6.25,6.25h26.29a6.25,6.25,0,0,0,0-12.5Z"/><path d="M212.93,5.84a8,8,0,0,0-7.21-4.52,8.16,8.16,0,0,0-7.2,4.49L161.9,81.24a8,8,0,0,0,12.66,9.3,95.84,95.84,0,0,1,18.57-12.9,63.66,63.66,0,0,1,18.11-6.46,36.77,36.77,0,0,1,16,.31l8.09,16.72a8.08,8.08,0,0,0,4.69,4,7.75,7.75,0,0,0,6-.47,7.9,7.9,0,0,0,3.7-10.61Zm6,48.64a62.07,62.07,0,0,0-10.66,1,76.58,76.58,0,0,0-19.08,6.32l16.58-34.23Z"/><path d="M326.7,14.79A47.45,47.45,0,0,0,293.5,1.32H266.22a8.11,8.11,0,0,0-5.57,2.34,7.63,7.63,0,0,0-2.43,5.66V84.78a8,8,0,0,0,8,8h27.06a49,49,0,0,0,18.23-3.6,47.59,47.59,0,0,0,14.95-9.73,45.48,45.48,0,0,0,10.23-14.53,42.81,42.81,0,0,0,3.86-17.76,45,45,0,0,0-3.74-17.85A46.76,46.76,0,0,0,326.7,14.79Zm-2.15,32.37a27,27,0,0,1-2.41,11.17,31.25,31.25,0,0,1-6.73,9.58,30.82,30.82,0,0,1-10,6.41,33.89,33.89,0,0,1-11.93,2.46H274.22V17.32H293.5a31.17,31.17,0,0,1,22,9,28.68,28.68,0,0,1,6.6,9.45A27.88,27.88,0,0,1,324.55,47.16Z"/><path d="M427.28,1.53a7.78,7.78,0,0,0-6.1-.05,8,8,0,0,0-4.37,4.35L392.72,64.05,368.61,5.78a8,8,0,0,0-14.83,6.14l31.46,76.14a8,8,0,0,0,14.85,0L431.53,12a7.74,7.74,0,0,0,.1-6A8,8,0,0,0,427.28,1.53Z"/><path d="M505.36,76.67H460.78V54.83H499a7.92,7.92,0,0,0,8-8,8,8,0,0,0-8-8h-38.2V17.32h43.48a7.92,7.92,0,0,0,8-8,7.92,7.92,0,0,0-8-8H452.78a8,8,0,0,0-8,8V84.67a8,8,0,0,0,8,8h52.58a8,8,0,0,0,0-16Z"/><path d="M596.88,1.65a7.91,7.91,0,0,0-8,8V62.92L540.08,4.44A8,8,0,0,0,526,9.54V85a8,8,0,0,0,16,0V31.64l48.71,58.59.07.08a8.34,8.34,0,0,0,6.14,2.8,8.56,8.56,0,0,0,2.66-.46l.18-.07a8.19,8.19,0,0,0,5.16-7.47V9.65A8,8,0,0,0,596.88,1.65Z"/><path d="M684.77,1.32H625.48a7.91,7.91,0,0,0-8,8,7.91,7.91,0,0,0,8,8h21.7V84.78a7.91,7.91,0,0,0,8,8,8,8,0,0,0,8-8V17.32h21.59a7.92,7.92,0,0,0,8-8A7.92,7.92,0,0,0,684.77,1.32Z"/><path d="M775.08,1.32a8.1,8.1,0,0,0-8,8V55.19c0,2,0,8.17-2.9,13.56A16.09,16.09,0,0,1,758.11,75c-3.58,2-8.23,3.08-13.83,3.08S734,77.06,730.45,75a16.06,16.06,0,0,1-6.2-6.4c-2.88-5.27-2.88-11.41-2.88-13.43V9.32a8,8,0,0,0-8-8,8.1,8.1,0,0,0-8,8V55.19c0,3,0,12.18,4.82,21.12a32,32,0,0,0,12.25,12.5c6,3.51,13.32,5.29,21.84,5.29,20.19,0,29.63-9.69,34-17.8,4.82-8.81,4.82-18.07,4.82-21.11V9.32A8,8,0,0,0,775.08,1.32Z"/><path d="M862.55,76.56c-.44,0-2.23-.38-4.12-3.57a60.18,60.18,0,0,0-9.88-13.09c1-.45,2.06-1,3.12-1.55,9-5.14,13.91-14.12,13.91-25.27a35.63,35.63,0,0,0-2.37-13.66,26.34,26.34,0,0,0-6.29-9.67,28.83,28.83,0,0,0-13.46-7.47,29.29,29.29,0,0,0-7.11-1H803.68a7.91,7.91,0,0,0-8,8V84.78a8,8,0,0,0,16,0V17.32h24.66a16.09,16.09,0,0,1,7,1.95,11.6,11.6,0,0,1,4.18,4.17c1.4,2.43,2.09,5.58,2.09,9.64,0,5.58-1.79,9.09-5.77,11.35s-9.59,3.31-16.92,3.31a8,8,0,0,0-1.58,15.84l.16,0a23,23,0,0,1,5.9,2.92A41.69,41.69,0,0,1,844.63,81a22.85,22.85,0,0,0,12,10.56l.1,0a17.81,17.81,0,0,0,7.84.86,8.06,8.06,0,0,0,6.73-9.11A8,8,0,0,0,862.55,76.56Z"/><path d="M944.58,76.67H900V54.83h38.21a7.92,7.92,0,0,0,8-8,8,8,0,0,0-8-8H900V17.32h43.49a7.92,7.92,0,0,0,8-8,7.92,7.92,0,0,0-8-8H892a8,8,0,0,0-8,8V84.67a8,8,0,0,0,8,8h52.58a8,8,0,0,0,0-16Z"/><path d="M1082.52,76.67h-43.33l49.58-62.38a8.14,8.14,0,0,0,1-8.41l-.08-.15a8.13,8.13,0,0,0-7.16-4.41h-58.19a8,8,0,1,0,0,16h41.57l-49.57,62.27a8.07,8.07,0,0,0,6.24,13.08h59.95a8.1,8.1,0,0,0,8-8A8,8,0,0,0,1082.52,76.67Z"/><path d="M1184,14.07A46.21,46.21,0,0,0,1150.61,0a48.92,48.92,0,0,0-18.69,3.72,48.14,48.14,0,0,0-15.17,10.19,47.43,47.43,0,0,0-10.34,15,45.55,45.55,0,0,0-3.84,18.39,46.9,46.9,0,0,0,3.72,18.25,50,50,0,0,0,10.21,15.09,48.4,48.4,0,0,0,15.19,10.21,47.1,47.1,0,0,0,52.15-10.21,45.49,45.49,0,0,0,10-15.09,46,46,0,0,0,3.61-18.25,46.79,46.79,0,0,0-3.6-18.23A45.93,45.93,0,0,0,1184,14.07Zm-33.69,64.58a31.56,31.56,0,0,1-22.46-9.42,30.72,30.72,0,0,1-9.25-22,28.46,28.46,0,0,1,2.52-11.94l.05-.1a28.85,28.85,0,0,1,6.82-9.95,31.39,31.39,0,0,1,10.18-6.83A32.84,32.84,0,0,1,1150.61,16a30.27,30.27,0,0,1,22,9.26,31.15,31.15,0,0,1,8.85,22,33,33,0,0,1-2.32,12.1,31.6,31.6,0,0,1-6.62,10A31.25,31.25,0,0,1,1150.28,78.65Z"/><path d="M1280.41,1.65a7.92,7.92,0,0,0-8,8V62.92l-48.8-58.48a8,8,0,0,0-14.12,5.1V85a8,8,0,0,0,16,0V31.64l48.71,58.59.07.08a8.37,8.37,0,0,0,6.14,2.8,8.56,8.56,0,0,0,2.66-.46l.18-.07a8.18,8.18,0,0,0,5.16-7.47V9.65A8,8,0,0,0,1280.41,1.65Z"/><path d="M1361.59,76.67H1317V54.83h38.2a7.91,7.91,0,0,0,8-8,8,8,0,0,0-8-8H1317V17.32h43.48a7.91,7.91,0,0,0,8-8,7.91,7.91,0,0,0-8-8H1309a8,8,0,0,0-8,8V84.67a8,8,0,0,0,8,8h52.58a8,8,0,0,0,0-16Z"/><path d="M1498.88,45.72a26.7,26.7,0,0,0-2.47-2.16,24.83,24.83,0,0,0,3.89-8.21,30.68,30.68,0,0,0,.61-12C1499.57,12,1493.12,6.66,1488,4.22s-10.59-2.9-14.76-2.9h-33.55a8,8,0,0,0-8,8V84.67A8.35,8.35,0,0,0,1434,90.3l.09.1a8,8,0,0,0,5.62,2.27h38.61a30.34,30.34,0,0,0,16.27-4.22,23,23,0,0,0,7.64-7.75l.06-.1a31.11,31.11,0,0,0,3.6-12.06v-.08a35.26,35.26,0,0,0-1.21-13A25.14,25.14,0,0,0,1498.88,45.72Zm-12.73,29.1-.08.05a14.68,14.68,0,0,1-7.77,1.8h-30.61V17.32h25.55c9.07,0,11.2,2.91,11.82,7.92.46,3.91-.12,7-1.63,9-2.33,2.76-6.22,3.41-6.94,3.51l-17.88.11a8,8,0,0,0-8,8.09,8.18,8.18,0,0,0,8,7.91l18.37-.11h.47a17.85,17.85,0,0,1,3.77.28,12.91,12.91,0,0,1,6.29,2.93c2,2.15,2.85,5.54,2.38,10.12C1489.4,72.32,1487.52,74,1486.15,74.82Z"/><path d="M1526.59,1.32a8.1,8.1,0,0,0-8,8V84.78a8,8,0,0,0,8,8,7.92,7.92,0,0,0,8-8V9.32A8,8,0,0,0,1526.59,1.32Z"/><path d="M1618.11,1.65a7.91,7.91,0,0,0-8,8V62.92l-48.8-58.48a8,8,0,0,0-14.12,5.1V85a8,8,0,0,0,16,0V31.64l48.71,58.59.07.08a8.34,8.34,0,0,0,6.14,2.8,8.56,8.56,0,0,0,2.66-.46l.18-.07a8.2,8.2,0,0,0,5.16-7.47V9.65A8,8,0,0,0,1618.11,1.65Z"/><path d="M1715.35,40.81a7.91,7.91,0,0,0-8,8V70.63a31.73,31.73,0,0,1-8.12,5.39,30.31,30.31,0,0,1-12.81,2.74A31.58,31.58,0,0,1,1664,69.34a30.7,30.7,0,0,1-6.81-10,30.13,30.13,0,0,1-2.43-12,30.45,30.45,0,0,1,2.43-12,32.16,32.16,0,0,1,6.95-10,32.44,32.44,0,0,1,22.55-9.28,30.16,30.16,0,0,1,17.82,5.71A8,8,0,0,0,1717,13.9a7.87,7.87,0,0,0-3.29-5.19,46.67,46.67,0,0,0-27.07-8.6A48.08,48.08,0,0,0,1652.77,14a47.34,47.34,0,0,0-10.35,15,47.23,47.23,0,0,0-3.71,18.35,46,46,0,0,0,3.73,18.38,47,47,0,0,0,10.2,15,46.22,46.22,0,0,0,15.17,10.2,47.06,47.06,0,0,0,38-.34,48,48,0,0,0,15.47-11.29,8.08,8.08,0,0,0,2.06-5.29V48.81A7.92,7.92,0,0,0,1715.35,40.81Z"/><path d="M1826.66,29a46.85,46.85,0,0,0-43.23-29,48.92,48.92,0,0,0-18.69,3.72,48.25,48.25,0,0,0-15.17,10.19,47.24,47.24,0,0,0-10.33,15,45.39,45.39,0,0,0-3.85,18.39,46.73,46.73,0,0,0,3.73,18.25,49.6,49.6,0,0,0,10.21,15.09,48.24,48.24,0,0,0,15.18,10.21,47.1,47.1,0,0,0,52.15-10.21,45.49,45.49,0,0,0,10-15.09,46,46,0,0,0,3.61-18.25A46.79,46.79,0,0,0,1826.66,29ZM1783.1,78.65a31.58,31.58,0,0,1-22.46-9.42,30.72,30.72,0,0,1-9.25-22,28.31,28.31,0,0,1,2.53-11.94l0-.1a28.85,28.85,0,0,1,6.82-9.95A31.39,31.39,0,0,1,1771,18.45,32.87,32.87,0,0,1,1783.43,16a30.24,30.24,0,0,1,22,9.26,31.15,31.15,0,0,1,8.85,22,33,33,0,0,1-2.32,12.1,31.16,31.16,0,0,1-28.84,19.28Z"/><path d="M137.56,79.82h-122a7,7,0,0,1,0-14h122a7,7,0,0,1,0,14Z"/></g></g></svg>